%TF.GenerationSoftware,KiCad,Pcbnew,10.0.4*%
%TF.CreationDate,2026-08-03T22:27:41+05:00*%
%TF.ProjectId,ATMEGA328P Datalogger,41544d45-4741-4333-9238-502044617461,FIRST*%
%TF.SameCoordinates,Original*%
%TF.FileFunction,Copper,L1,Top*%
%TF.FilePolarity,Positive*%
%FSLAX46Y46*%
G04 Gerber Fmt 4.6, Leading zero omitted, Abs format (unit mm)*
G04 Created by KiCad (PCBNEW 10.0.4) date 2026-08-03 22:27:41*
%MOMM*%
%LPD*%
G01*
G04 APERTURE LIST*
G04 Aperture macros list*
%AMRoundRect*
0 Rectangle with rounded corners*
0 $1 Rounding radius*
0 $2 $3 $4 $5 $6 $7 $8 $9 X,Y pos of 4 corners*
0 Add a 4 corners polygon primitive as box body*
4,1,4,$2,$3,$4,$5,$6,$7,$8,$9,$2,$3,0*
0 Add four circle primitives for the rounded corners*
1,1,$1+$1,$2,$3*
1,1,$1+$1,$4,$5*
1,1,$1+$1,$6,$7*
1,1,$1+$1,$8,$9*
0 Add four rect primitives between the rounded corners*
20,1,$1+$1,$2,$3,$4,$5,0*
20,1,$1+$1,$4,$5,$6,$7,0*
20,1,$1+$1,$6,$7,$8,$9,0*
20,1,$1+$1,$8,$9,$2,$3,0*%
G04 Aperture macros list end*
%TA.AperFunction,SMDPad,CuDef*%
%ADD10RoundRect,0.162500X-0.650000X-0.162500X0.650000X-0.162500X0.650000X0.162500X-0.650000X0.162500X0*%
%TD*%
%TA.AperFunction,SMDPad,CuDef*%
%ADD11RoundRect,0.068750X-0.666250X-0.206250X0.666250X-0.206250X0.666250X0.206250X-0.666250X0.206250X0*%
%TD*%
%TA.AperFunction,SMDPad,CuDef*%
%ADD12RoundRect,0.068750X-0.206250X-0.666250X0.206250X-0.666250X0.206250X0.666250X-0.206250X0.666250X0*%
%TD*%
%TA.AperFunction,SMDPad,CuDef*%
%ADD13RoundRect,0.250000X0.450000X-0.262500X0.450000X0.262500X-0.450000X0.262500X-0.450000X-0.262500X0*%
%TD*%
%TA.AperFunction,ComponentPad*%
%ADD14R,1.700000X1.700000*%
%TD*%
%TA.AperFunction,ComponentPad*%
%ADD15C,1.700000*%
%TD*%
%TA.AperFunction,SMDPad,CuDef*%
%ADD16RoundRect,0.250000X-0.250000X-0.475000X0.250000X-0.475000X0.250000X0.475000X-0.250000X0.475000X0*%
%TD*%
%TA.AperFunction,SMDPad,CuDef*%
%ADD17RoundRect,0.250000X-0.262500X-0.450000X0.262500X-0.450000X0.262500X0.450000X-0.262500X0.450000X0*%
%TD*%
%TA.AperFunction,SMDPad,CuDef*%
%ADD18RoundRect,0.250001X0.949999X-1.499999X0.949999X1.499999X-0.949999X1.499999X-0.949999X-1.499999X0*%
%TD*%
%TA.AperFunction,SMDPad,CuDef*%
%ADD19RoundRect,0.250000X0.250000X0.475000X-0.250000X0.475000X-0.250000X-0.475000X0.250000X-0.475000X0*%
%TD*%
%TA.AperFunction,SMDPad,CuDef*%
%ADD20RoundRect,0.243750X0.456250X-0.243750X0.456250X0.243750X-0.456250X0.243750X-0.456250X-0.243750X0*%
%TD*%
%TA.AperFunction,SMDPad,CuDef*%
%ADD21RoundRect,0.243750X0.243750X0.456250X-0.243750X0.456250X-0.243750X-0.456250X0.243750X-0.456250X0*%
%TD*%
%TA.AperFunction,SMDPad,CuDef*%
%ADD22RoundRect,0.250001X1.499999X0.949999X-1.499999X0.949999X-1.499999X-0.949999X1.499999X-0.949999X0*%
%TD*%
%TA.AperFunction,SMDPad,CuDef*%
%ADD23RoundRect,0.250000X0.475000X-0.250000X0.475000X0.250000X-0.475000X0.250000X-0.475000X-0.250000X0*%
%TD*%
%TA.AperFunction,SMDPad,CuDef*%
%ADD24RoundRect,0.250000X-0.450000X0.262500X-0.450000X-0.262500X0.450000X-0.262500X0.450000X0.262500X0*%
%TD*%
%TA.AperFunction,SMDPad,CuDef*%
%ADD25RoundRect,0.073750X-0.911250X-0.221250X0.911250X-0.221250X0.911250X0.221250X-0.911250X0.221250X0*%
%TD*%
%TA.AperFunction,ViaPad*%
%ADD26C,0.900000*%
%TD*%
%TA.AperFunction,ViaPad*%
%ADD27C,0.600000*%
%TD*%
%TA.AperFunction,Conductor*%
%ADD28C,0.350000*%
%TD*%
%TA.AperFunction,Conductor*%
%ADD29C,0.200000*%
%TD*%
G04 APERTURE END LIST*
D10*
%TO.P,U3,1,A0_1*%
%TO.N,VCC*%
X157412500Y-52595000D03*
%TO.P,U3,2,A1_2*%
%TO.N,GND*%
X157412500Y-53865000D03*
%TO.P,U3,3,A2_3*%
%TO.N,VCC*%
X157412500Y-55135000D03*
%TO.P,U3,4,GND_4*%
%TO.N,GND*%
X157412500Y-56405000D03*
%TO.P,U3,5,SDA_5*%
%TO.N,/SDA*%
X164587500Y-56405000D03*
%TO.P,U3,6,SCL_6*%
%TO.N,/SCL*%
X164587500Y-55135000D03*
%TO.P,U3,7,WP_7*%
%TO.N,GND*%
X164587500Y-53865000D03*
%TO.P,U3,8,VCC_8*%
%TO.N,VCC*%
X164587500Y-52595000D03*
%TD*%
D11*
%TO.P,U1,1,PD3_1*%
%TO.N,/D3*%
X173330000Y-60200000D03*
%TO.P,U1,2,PD4_2*%
%TO.N,/D4*%
X173330000Y-61000000D03*
%TO.P,U1,3,GND_3*%
%TO.N,GND*%
X173330000Y-61800000D03*
%TO.P,U1,4,VCC_4*%
%TO.N,VCC*%
X173330000Y-62600000D03*
%TO.P,U1,5,GND_5*%
%TO.N,GND*%
X173330000Y-63400000D03*
%TO.P,U1,6,VCC_6*%
%TO.N,VCC*%
X173330000Y-64200000D03*
%TO.P,U1,7,PB6_7*%
%TO.N,Net-(U1-PB6)*%
X173330000Y-65000000D03*
%TO.P,U1,8,PB7_8*%
%TO.N,Net-(U1-PB7)*%
X173330000Y-65800000D03*
D12*
%TO.P,U1,9,PD5_9*%
%TO.N,/D5*%
X174700000Y-67170000D03*
%TO.P,U1,10,PD6_10*%
%TO.N,/D6*%
X175500000Y-67170000D03*
%TO.P,U1,11,PD7_11*%
%TO.N,/D7*%
X176300000Y-67170000D03*
%TO.P,U1,12,PB0_12*%
%TO.N,/D8*%
X177100000Y-67170000D03*
%TO.P,U1,13,PB1_13*%
%TO.N,unconnected-(U1-PB1-Pad13)*%
X177900000Y-67170000D03*
%TO.P,U1,14,PB2_14*%
%TO.N,unconnected-(U1-PB2-Pad14)*%
X178700000Y-67170000D03*
%TO.P,U1,15,PB3_15*%
%TO.N,/MISO*%
X179500000Y-67170000D03*
%TO.P,U1,16,PB4_16*%
%TO.N,/MOSI*%
X180300000Y-67170000D03*
D11*
%TO.P,U1,17,PB5_17*%
%TO.N,/SCK*%
X181670000Y-65800000D03*
%TO.P,U1,18,AVCC_18*%
%TO.N,VCC*%
X181670000Y-65000000D03*
%TO.P,U1,19,ADC6_19*%
%TO.N,unconnected-(U1-ADC6-Pad19)*%
X181670000Y-64200000D03*
%TO.P,U1,20,AREF_20*%
%TO.N,Net-(U1-AREF)*%
X181670000Y-63400000D03*
%TO.P,U1,21,GND_21*%
%TO.N,GND*%
X181670000Y-62600000D03*
%TO.P,U1,22,ADC7_22*%
%TO.N,unconnected-(U1-ADC7-Pad22)*%
X181670000Y-61800000D03*
%TO.P,U1,23,PC0_23*%
%TO.N,unconnected-(U1-PC0-Pad23)*%
X181670000Y-61000000D03*
%TO.P,U1,24,PC1_24*%
%TO.N,unconnected-(U1-PC1-Pad24)*%
X181670000Y-60200000D03*
D12*
%TO.P,U1,25,PC2_25*%
%TO.N,unconnected-(U1-PC2-Pad25)*%
X180300000Y-58830000D03*
%TO.P,U1,26,PC3_26*%
%TO.N,unconnected-(U1-PC3-Pad26)*%
X179500000Y-58830000D03*
%TO.P,U1,27,PC4_27*%
%TO.N,/SDA*%
X178700000Y-58830000D03*
%TO.P,U1,28,PC5_28*%
%TO.N,/SCL*%
X177900000Y-58830000D03*
%TO.P,U1,29,PC6/~{RESET}_29*%
%TO.N,/RESET*%
X177100000Y-58830000D03*
%TO.P,U1,30,PD0_30*%
%TO.N,/TX*%
X176300000Y-58830000D03*
%TO.P,U1,31,PD1_31*%
%TO.N,/RX*%
X175500000Y-58830000D03*
%TO.P,U1,32,PD2_32*%
%TO.N,/D2*%
X174700000Y-58830000D03*
%TD*%
D13*
%TO.P,R6,1*%
%TO.N,VCC*%
X185000000Y-62412500D03*
%TO.P,R6,2*%
%TO.N,/RESET*%
X185000000Y-60587500D03*
%TD*%
D14*
%TO.P,J2,1,Pin_1_1*%
%TO.N,/D2*%
X157500000Y-78000000D03*
D15*
%TO.P,J2,2,Pin_2_2*%
%TO.N,/D3*%
X160040000Y-78000000D03*
%TO.P,J2,3,Pin_3_3*%
%TO.N,/D4*%
X162580000Y-78000000D03*
%TO.P,J2,4,Pin_4_4*%
%TO.N,/D5*%
X165120000Y-78000000D03*
%TO.P,J2,5,Pin_5_5*%
%TO.N,/D6*%
X167660000Y-78000000D03*
%TO.P,J2,6,Pin_6_6*%
%TO.N,/D7*%
X170200000Y-78000000D03*
%TO.P,J2,7,Pin_7_7*%
%TO.N,/D8*%
X172740000Y-78000000D03*
%TO.P,J2,8,Pin_8_8*%
%TO.N,GND*%
X175280000Y-78000000D03*
%TO.P,J2,9,Pin_9_9*%
%TO.N,VCC*%
X177820000Y-78000000D03*
%TD*%
D16*
%TO.P,C5,1*%
%TO.N,VCC*%
X185550000Y-55500000D03*
%TO.P,C5,2*%
%TO.N,GND*%
X187450000Y-55500000D03*
%TD*%
D14*
%TO.P,BT1,1,+_1*%
%TO.N,VCC*%
X197500000Y-57730000D03*
D15*
%TO.P,BT1,2,-_2*%
%TO.N,GND*%
X197500000Y-60270000D03*
%TD*%
D10*
%TO.P,U2,1,A0_1*%
%TO.N,VCC*%
X157412500Y-60595000D03*
%TO.P,U2,2,A1_2*%
X157412500Y-61865000D03*
%TO.P,U2,3,A2_3*%
X157412500Y-63135000D03*
%TO.P,U2,4,GND_4*%
%TO.N,GND*%
X157412500Y-64405000D03*
%TO.P,U2,5,SDA_5*%
%TO.N,/SDA*%
X164587500Y-64405000D03*
%TO.P,U2,6,SCL_6*%
%TO.N,/SCL*%
X164587500Y-63135000D03*
%TO.P,U2,7,WP_7*%
%TO.N,GND*%
X164587500Y-61865000D03*
%TO.P,U2,8,VCC_8*%
%TO.N,VCC*%
X164587500Y-60595000D03*
%TD*%
D14*
%TO.P,J1,1,Pin_1_1*%
%TO.N,VCC*%
X197500000Y-72080000D03*
D15*
%TO.P,J1,2,Pin_2_2*%
%TO.N,GND*%
X197500000Y-69540000D03*
%TO.P,J1,3,Pin_3_3*%
%TO.N,/SDA*%
X197500000Y-67000000D03*
%TO.P,J1,4,Pin_4_4*%
%TO.N,/SCL*%
X197500000Y-64460000D03*
%TD*%
D17*
%TO.P,R3,1*%
%TO.N,VCC*%
X167450000Y-59500000D03*
%TO.P,R3,2*%
%TO.N,/SCL*%
X169275000Y-59500000D03*
%TD*%
D14*
%TO.P,J4,1,Pin_1_1*%
%TO.N,/MISO*%
X187960000Y-78040000D03*
D15*
%TO.P,J4,2,Pin_2_2*%
%TO.N,/RESET*%
X187960000Y-75500000D03*
%TO.P,J4,3,Pin_3_3*%
%TO.N,/MOSI*%
X190500000Y-78040000D03*
%TO.P,J4,4,Pin_4_4*%
%TO.N,VCC*%
X190500000Y-75500000D03*
%TO.P,J4,5,Pin_5_5*%
%TO.N,/SCK*%
X193040000Y-78040000D03*
%TO.P,J4,6,Pin_6_6*%
%TO.N,GND*%
X193040000Y-75500000D03*
%TD*%
D17*
%TO.P,R2,1*%
%TO.N,Net-(U4-SQW{slash}~INT)*%
X167450000Y-65500000D03*
%TO.P,R2,2*%
%TO.N,VCC*%
X169275000Y-65500000D03*
%TD*%
D18*
%TO.P,Y1,1,1_1*%
%TO.N,Net-(U4-X2)*%
X154000000Y-71600000D03*
%TO.P,Y1,2,2_2*%
%TO.N,Net-(U4-X1)*%
X154000000Y-66400000D03*
%TD*%
D19*
%TO.P,C3,1*%
%TO.N,GND*%
X185400000Y-73000000D03*
%TO.P,C3,2*%
%TO.N,Net-(U1-PB7)*%
X183500000Y-73000000D03*
%TD*%
D20*
%TO.P,D1,1,K_1*%
%TO.N,Net-(D1-K)*%
X184500000Y-66437500D03*
%TO.P,D1,2,A_2*%
%TO.N,/SCK*%
X184500000Y-64562500D03*
%TD*%
D21*
%TO.P,D2,1,K_1*%
%TO.N,Net-(D2-K)*%
X174437500Y-55500000D03*
%TO.P,D2,2,A_2*%
%TO.N,VCC*%
X172562500Y-55500000D03*
%TD*%
D16*
%TO.P,C1,1*%
%TO.N,VCC*%
X167500000Y-56000000D03*
%TO.P,C1,2*%
%TO.N,GND*%
X169400000Y-56000000D03*
%TD*%
D22*
%TO.P,Y2,1,1_1*%
%TO.N,Net-(U1-PB7)*%
X180000000Y-72000000D03*
%TO.P,Y2,2,2_2*%
%TO.N,Net-(U1-PB6)*%
X174800000Y-72000000D03*
%TD*%
D17*
%TO.P,R1,1*%
%TO.N,VCC*%
X160587500Y-74500000D03*
%TO.P,R1,2*%
%TO.N,Net-(U4-~{INTA})*%
X162412500Y-74500000D03*
%TD*%
D23*
%TO.P,C2,1*%
%TO.N,GND*%
X171000000Y-73950000D03*
%TO.P,C2,2*%
%TO.N,Net-(U1-PB6)*%
X171000000Y-72050000D03*
%TD*%
D16*
%TO.P,C4,1*%
%TO.N,Net-(U1-AREF)*%
X181050000Y-55500000D03*
%TO.P,C4,2*%
%TO.N,GND*%
X182950000Y-55500000D03*
%TD*%
D24*
%TO.P,R5,1*%
%TO.N,GND*%
X187500000Y-60587500D03*
%TO.P,R5,2*%
%TO.N,Net-(D1-K)*%
X187500000Y-62412500D03*
%TD*%
D25*
%TO.P,U4,1,X1_1*%
%TO.N,Net-(U4-X1)*%
X158525000Y-68595000D03*
%TO.P,U4,2,X2_2*%
%TO.N,Net-(U4-X2)*%
X158525000Y-69865000D03*
%TO.P,U4,3,~{INTA}_3*%
%TO.N,Net-(U4-~{INTA})*%
X158525000Y-71135000D03*
%TO.P,U4,4,GND_4*%
%TO.N,GND*%
X158525000Y-72405000D03*
%TO.P,U4,5,SDA_5*%
%TO.N,/SDA*%
X163475000Y-72405000D03*
%TO.P,U4,6,SCL_6*%
%TO.N,/SCL*%
X163475000Y-71135000D03*
%TO.P,U4,7,SQW/~INT_7*%
%TO.N,Net-(U4-SQW{slash}~INT)*%
X163475000Y-69865000D03*
%TO.P,U4,8,VCC_8*%
%TO.N,VCC*%
X163475000Y-68595000D03*
%TD*%
D17*
%TO.P,R4,1*%
%TO.N,VCC*%
X167450000Y-62450000D03*
%TO.P,R4,2*%
%TO.N,/SDA*%
X169275000Y-62450000D03*
%TD*%
%TO.P,R7,1*%
%TO.N,GND*%
X176587500Y-55500000D03*
%TO.P,R7,2*%
%TO.N,Net-(D2-K)*%
X178412500Y-55500000D03*
%TD*%
D14*
%TO.P,J3,1,Pin_1_1*%
%TO.N,VCC*%
X173690000Y-52000000D03*
D15*
%TO.P,J3,2,Pin_2_2*%
%TO.N,GND*%
X176230000Y-52000000D03*
%TO.P,J3,3,Pin_3_3*%
%TO.N,/RX*%
X178770000Y-52000000D03*
%TO.P,J3,4,Pin_4_4*%
%TO.N,/TX*%
X181310000Y-52000000D03*
%TD*%
D26*
%TO.N,VCC*%
X157500000Y-58500000D03*
X171000000Y-55000000D03*
X158500000Y-74500000D03*
X155000000Y-56500000D03*
X168975000Y-53787563D03*
X184500000Y-52000000D03*
X183500000Y-76500000D03*
X165901160Y-68444927D03*
%TO.N,GND*%
X175500000Y-61500000D03*
X186500000Y-69500000D03*
D27*
%TO.N,/SDA*%
X177012653Y-61875000D03*
X170000000Y-64000000D03*
X165750000Y-57567500D03*
X166500000Y-64000000D03*
X165500000Y-71000000D03*
%TO.N,/SCL*%
X188000000Y-64000000D03*
X177500000Y-60500000D03*
X166000000Y-62000000D03*
X170600000Y-61834969D03*
X168500000Y-61000000D03*
%TO.N,Net-(U1-PB6)*%
X171079897Y-67400001D03*
X172000000Y-70500000D03*
%TO.N,Net-(U1-PB7)*%
X171948527Y-67400000D03*
X178500000Y-69000000D03*
%TO.N,/D8*%
X176500000Y-69000000D03*
%TO.N,/MISO*%
X179500000Y-69000000D03*
X182500000Y-78000000D03*
%TO.N,/MOSI*%
X180300003Y-69000000D03*
%TO.N,/SCK*%
X183500000Y-68000000D03*
X187000000Y-72500000D03*
%TO.N,Net-(U1-AREF)*%
X182500000Y-57000000D03*
X183000000Y-60000000D03*
%TO.N,/RESET*%
X185000000Y-59000000D03*
X190500000Y-65500000D03*
%TO.N,/TX*%
X176992787Y-57492787D03*
%TO.N,/RX*%
X176000000Y-57500000D03*
%TD*%
%TO.N,VCC*%
D28*
X194400000Y-52900000D02*
X194400000Y-54900000D01*
X172557328Y-64200000D02*
X173330000Y-64200000D01*
X183375000Y-64125000D02*
X183375000Y-63337500D01*
X167450000Y-59500000D02*
X167450000Y-62450000D01*
X162905000Y-68595000D02*
X163475000Y-68595000D01*
X165901160Y-68444927D02*
X165901160Y-67873840D01*
X155000000Y-56500000D02*
X155000000Y-56000000D01*
X173095000Y-52595000D02*
X173690000Y-52000000D01*
X185550000Y-56000000D02*
X185550000Y-52450000D01*
X167450000Y-59500000D02*
X165682500Y-59500000D01*
X167450000Y-62450000D02*
X167450000Y-63675000D01*
X186125000Y-56075000D02*
X186125000Y-61287500D01*
X168975000Y-53787563D02*
X168975000Y-52620000D01*
X157500000Y-58500000D02*
X157500000Y-60507500D01*
X182500000Y-65000000D02*
X183375000Y-64125000D01*
X163475000Y-67999695D02*
X164699695Y-66775000D01*
X157412500Y-60595000D02*
X157412500Y-61865000D01*
X184500000Y-62412500D02*
X184500000Y-62442672D01*
X169000000Y-52595000D02*
X173095000Y-52595000D01*
X184500000Y-52000000D02*
X185550000Y-53050000D01*
X156000000Y-54500000D02*
X156635000Y-55135000D01*
X185550000Y-53050000D02*
X185550000Y-55500000D01*
X193920000Y-72080000D02*
X197500000Y-72080000D01*
X181942672Y-65000000D02*
X181170000Y-65000000D01*
X186500000Y-51500000D02*
X193000000Y-51500000D01*
X169191852Y-65500000D02*
X169275000Y-65500000D01*
X157412500Y-52595000D02*
X157034646Y-52595000D01*
X181670000Y-65000000D02*
X182500000Y-65000000D01*
X183375000Y-63337500D02*
X184300000Y-62412500D01*
X158500000Y-74500000D02*
X160587500Y-74500000D01*
X167500000Y-56000000D02*
X167500000Y-59450000D01*
X179700000Y-64200000D02*
X173330000Y-64200000D01*
X157412500Y-55135000D02*
X157790354Y-55135000D01*
X167000000Y-66775000D02*
X167916852Y-66775000D01*
X165682500Y-59500000D02*
X164587500Y-60595000D01*
X180500000Y-65000000D02*
X179700000Y-64200000D01*
X157500000Y-60507500D02*
X157412500Y-60595000D01*
X185550000Y-55500000D02*
X186125000Y-56075000D01*
X172170000Y-63812672D02*
X172557328Y-64200000D01*
X155000000Y-56000000D02*
X155865000Y-55135000D01*
X156000000Y-53629646D02*
X156000000Y-54500000D01*
X172170000Y-62987328D02*
X172170000Y-63812672D01*
X186125000Y-61287500D02*
X185000000Y-62412500D01*
X156635000Y-55135000D02*
X157412500Y-55135000D01*
X173330000Y-62600000D02*
X172557328Y-62600000D01*
X164699695Y-66775000D02*
X167000000Y-66775000D01*
X193000000Y-51500000D02*
X194400000Y-52900000D01*
X164587500Y-60595000D02*
X157412500Y-60595000D01*
X163475000Y-68595000D02*
X163475000Y-67999695D01*
X167916852Y-66775000D02*
X169191852Y-65500000D01*
X184300000Y-62412500D02*
X185000000Y-62412500D01*
X164587500Y-52595000D02*
X157412500Y-52595000D01*
X194400000Y-54900000D02*
X197230000Y-57730000D01*
X185550000Y-52450000D02*
X186500000Y-51500000D01*
X168975000Y-52620000D02*
X169000000Y-52595000D01*
X185500000Y-55550000D02*
X185550000Y-55500000D01*
X197230000Y-57730000D02*
X197500000Y-57730000D01*
X172557328Y-62600000D02*
X172170000Y-62987328D01*
X172562500Y-55500000D02*
X171500000Y-55500000D01*
X165901160Y-67873840D02*
X167000000Y-66775000D01*
X167450000Y-63675000D02*
X169275000Y-65500000D01*
X157034646Y-52595000D02*
X156000000Y-53629646D01*
X181670000Y-65000000D02*
X180500000Y-65000000D01*
X190500000Y-75500000D02*
X193920000Y-72080000D01*
X177820000Y-78000000D02*
X179320000Y-76500000D01*
X179320000Y-76500000D02*
X183500000Y-76500000D01*
X157412500Y-61865000D02*
X157412500Y-63135000D01*
X167500000Y-59450000D02*
X167450000Y-59500000D01*
X164587500Y-52595000D02*
X169000000Y-52595000D01*
X155865000Y-55135000D02*
X157412500Y-55135000D01*
X171500000Y-55500000D02*
X171000000Y-55000000D01*
%TO.N,GND*%
X193040000Y-75500000D02*
X194315000Y-76775000D01*
X185305000Y-79315000D02*
X185265000Y-79275000D01*
X189000000Y-60000000D02*
X188412500Y-60587500D01*
X199235000Y-69540000D02*
X199275000Y-69500000D01*
X194315000Y-78685000D02*
X193685000Y-79315000D01*
X193040000Y-75500000D02*
X194540000Y-74000000D01*
X157790354Y-56405000D02*
X158650000Y-55545354D01*
X176500000Y-52000000D02*
X178500000Y-54000000D01*
X173330000Y-61800000D02*
X175200000Y-61800000D01*
X197500000Y-69540000D02*
X199235000Y-69540000D01*
X158224999Y-53865000D02*
X157412500Y-53865000D01*
X193685000Y-79315000D02*
X185305000Y-79315000D01*
X176587500Y-52357500D02*
X176230000Y-52000000D01*
X195000000Y-54500000D02*
X195000000Y-52500000D01*
X174490000Y-62187328D02*
X174490000Y-63012672D01*
X199275000Y-73225000D02*
X199275000Y-69500000D01*
X176230000Y-52000000D02*
X174730000Y-53500000D01*
X156600001Y-64405000D02*
X157412500Y-64405000D01*
X176600000Y-62600000D02*
X175500000Y-61500000D01*
X170500000Y-53500000D02*
X169400000Y-54600000D01*
X177000000Y-75000000D02*
X175280000Y-76720000D01*
X181450000Y-54000000D02*
X182950000Y-55500000D01*
X183400000Y-75000000D02*
X177000000Y-75000000D01*
X158525000Y-72405000D02*
X156225000Y-74705000D01*
X157412500Y-56405000D02*
X156175000Y-57642500D01*
X156225000Y-74705000D02*
X156225000Y-79050000D01*
X185400000Y-73000000D02*
X183400000Y-75000000D01*
X160764999Y-61865000D02*
X164587500Y-61865000D01*
X194315000Y-76775000D02*
X194315000Y-78685000D01*
X199275000Y-69500000D02*
X199275000Y-62045000D01*
X187500000Y-60587500D02*
X187587500Y-60587500D01*
X199000000Y-56500000D02*
X198000000Y-55500000D01*
X194540000Y-74000000D02*
X198500000Y-74000000D01*
X187450000Y-55590000D02*
X187450000Y-56000000D01*
X156225000Y-79050000D02*
X156500000Y-79325000D01*
X176555000Y-79275000D02*
X175280000Y-78000000D01*
X172000000Y-75500000D02*
X172780000Y-75500000D01*
X171000000Y-74500000D02*
X171000000Y-73950000D01*
X158650000Y-55545354D02*
X158650000Y-54290001D01*
X172000000Y-75500000D02*
X171000000Y-74500000D01*
X174102672Y-61800000D02*
X174490000Y-62187328D01*
X157412500Y-64405000D02*
X158224999Y-64405000D01*
X174730000Y-53500000D02*
X170500000Y-53500000D01*
X196000000Y-55500000D02*
X195000000Y-54500000D01*
X197500000Y-60270000D02*
X199000000Y-58770000D01*
X158650000Y-54290001D02*
X158224999Y-53865000D01*
X199275000Y-62045000D02*
X197500000Y-60270000D01*
X181500000Y-79275000D02*
X176555000Y-79275000D01*
X187587500Y-60587500D02*
X187905000Y-60270000D01*
X174102672Y-63400000D02*
X173330000Y-63400000D01*
X169400000Y-55450000D02*
X169400000Y-56000000D01*
X176230000Y-52000000D02*
X176500000Y-52000000D01*
X167815000Y-53865000D02*
X169400000Y-55450000D01*
X175280000Y-76720000D02*
X175280000Y-78000000D01*
X169400000Y-54600000D02*
X169400000Y-56000000D01*
X156175000Y-57642500D02*
X156175000Y-63979999D01*
X185265000Y-79275000D02*
X181500000Y-79275000D01*
X185400000Y-73000000D02*
X185400000Y-70600000D01*
X193225000Y-50725000D02*
X177505000Y-50725000D01*
X188412500Y-60587500D02*
X187500000Y-60587500D01*
X158224999Y-64405000D02*
X160764999Y-61865000D01*
X195000000Y-52500000D02*
X193225000Y-50725000D01*
X188950000Y-57500000D02*
X189000000Y-57500000D01*
X157412500Y-56405000D02*
X157790354Y-56405000D01*
X157412500Y-53865000D02*
X164587500Y-53865000D01*
X178500000Y-54000000D02*
X181450000Y-54000000D01*
X175200000Y-61800000D02*
X175500000Y-61500000D01*
X198500000Y-74000000D02*
X199275000Y-73225000D01*
X181670000Y-62600000D02*
X176600000Y-62600000D01*
X156175000Y-63979999D02*
X156600001Y-64405000D01*
X164587500Y-53865000D02*
X167815000Y-53865000D01*
X173330000Y-61800000D02*
X174102672Y-61800000D01*
X185400000Y-70600000D02*
X186500000Y-69500000D01*
X156500000Y-79325000D02*
X173955000Y-79325000D01*
X177505000Y-50725000D02*
X176230000Y-52000000D01*
X198000000Y-55500000D02*
X196000000Y-55500000D01*
X172780000Y-75500000D02*
X175280000Y-78000000D01*
X173955000Y-79325000D02*
X175280000Y-78000000D01*
X157412500Y-53865000D02*
X157034646Y-53865000D01*
X189000000Y-57500000D02*
X189000000Y-60000000D01*
X187905000Y-60270000D02*
X197500000Y-60270000D01*
X199000000Y-58770000D02*
X199000000Y-56500000D01*
X176587500Y-55500000D02*
X176587500Y-52357500D01*
X187450000Y-56000000D02*
X188950000Y-57500000D01*
X174490000Y-63012672D02*
X174102672Y-63400000D01*
%TO.N,/SDA*%
D29*
X178700000Y-60187653D02*
X177012653Y-61875000D01*
X163475000Y-72405000D02*
X163081894Y-72405000D01*
X169275000Y-62450000D02*
X169275000Y-63275000D01*
X164587500Y-56405000D02*
X165750000Y-57567500D01*
X169275000Y-63275000D02*
X170000000Y-64000000D01*
X165500000Y-71000000D02*
X164095000Y-72405000D01*
X178700000Y-58830000D02*
X178700000Y-60187653D01*
X169500000Y-62225000D02*
X169275000Y-62450000D01*
X166095000Y-64405000D02*
X164587500Y-64405000D01*
X166500000Y-64000000D02*
X166095000Y-64405000D01*
X164095000Y-72405000D02*
X163475000Y-72405000D01*
%TO.N,/SCL*%
X169275000Y-60225000D02*
X168500000Y-61000000D01*
X164386424Y-63135000D02*
X164587500Y-63135000D01*
X188460000Y-64460000D02*
X188000000Y-64000000D01*
X168550000Y-58775000D02*
X169275000Y-59500000D01*
X169275000Y-59225000D02*
X169275000Y-59500000D01*
X168005456Y-54925000D02*
X168550000Y-55469544D01*
X164865000Y-63135000D02*
X164587500Y-63135000D01*
X168550000Y-55469544D02*
X168550000Y-58775000D01*
X166000000Y-62000000D02*
X164865000Y-63135000D01*
X164797500Y-54925000D02*
X168005456Y-54925000D01*
X177500000Y-60500000D02*
X177900000Y-60100000D01*
X162490000Y-71135000D02*
X161500000Y-70145000D01*
X170600000Y-60825000D02*
X170600000Y-61834969D01*
X161500000Y-66021424D02*
X164386424Y-63135000D01*
X169275000Y-59500000D02*
X169275000Y-60225000D01*
X169275000Y-59500000D02*
X170600000Y-60825000D01*
X177900000Y-60100000D02*
X177900000Y-58830000D01*
X164587500Y-55135000D02*
X164797500Y-54925000D01*
X163475000Y-71135000D02*
X162490000Y-71135000D01*
X197500000Y-64460000D02*
X188460000Y-64460000D01*
X161500000Y-70145000D02*
X161500000Y-66021424D01*
%TO.N,/D3*%
X173330000Y-60200000D02*
X172300000Y-60200000D01*
X161190000Y-76850000D02*
X160040000Y-78000000D01*
X167000000Y-72065685D02*
X162215685Y-76850000D01*
X168500000Y-67500000D02*
X167000000Y-69000000D01*
X160500000Y-78000000D02*
X160040000Y-78000000D01*
X167000000Y-69000000D02*
X167000000Y-72065685D01*
X172300000Y-60200000D02*
X171600000Y-60900001D01*
X171245000Y-62604181D02*
X171245000Y-65820686D01*
X171600000Y-62249180D02*
X171245000Y-62604181D01*
X162215685Y-76850000D02*
X161190000Y-76850000D01*
X169565686Y-67500000D02*
X168500000Y-67500000D01*
X171600000Y-60900001D02*
X171600000Y-62249180D01*
X171245000Y-65820686D02*
X169565686Y-67500000D01*
%TO.N,/D4*%
X167500000Y-69500000D02*
X169100000Y-67900000D01*
X172065687Y-61000000D02*
X173330000Y-61000000D01*
X163500000Y-76500000D02*
X167500000Y-72500000D01*
X169731372Y-67900000D02*
X171645000Y-65986372D01*
X163500000Y-77080000D02*
X163500000Y-76500000D01*
X167500000Y-72500000D02*
X167500000Y-69500000D01*
X171645000Y-62769866D02*
X172000000Y-62414866D01*
X169100000Y-67900000D02*
X169731372Y-67900000D01*
X162580000Y-78000000D02*
X163500000Y-77080000D01*
X172000000Y-62414866D02*
X172000000Y-61065686D01*
X171645000Y-65986372D02*
X171645000Y-62769866D01*
X172000000Y-61065686D02*
X172065687Y-61000000D01*
%TO.N,Net-(U1-PB6)*%
X172045000Y-66455000D02*
X171099999Y-67400001D01*
X172000000Y-71050000D02*
X171000000Y-72050000D01*
X172595000Y-65000000D02*
X172045000Y-65550000D01*
X172000000Y-70500000D02*
X172000000Y-71050000D01*
X173300000Y-70500000D02*
X174800000Y-72000000D01*
X171099999Y-67400001D02*
X171079897Y-67400001D01*
X173330000Y-65000000D02*
X172595000Y-65000000D01*
X171000000Y-67479898D02*
X171079897Y-67400001D01*
X172045000Y-65550000D02*
X172045000Y-66455000D01*
X171000000Y-67500000D02*
X171000000Y-67479898D01*
X172000000Y-70500000D02*
X173300000Y-70500000D01*
%TO.N,Net-(U1-PB7)*%
X178500000Y-69000000D02*
X180000000Y-70500000D01*
X180000000Y-70500000D02*
X180000000Y-72000000D01*
X182500000Y-72000000D02*
X180000000Y-72000000D01*
X183500000Y-73000000D02*
X182500000Y-72000000D01*
X171948527Y-67181473D02*
X171948527Y-67400000D01*
X173330000Y-65800000D02*
X171948527Y-67181473D01*
%TO.N,/D5*%
X165120000Y-78000000D02*
X165120000Y-75445686D01*
X168000000Y-70000000D02*
X168000000Y-72565686D01*
X168000000Y-72565686D02*
X165120000Y-75445686D01*
X169500000Y-68500000D02*
X168000000Y-70000000D01*
X173370000Y-68500000D02*
X169500000Y-68500000D01*
X174700000Y-67170000D02*
X173370000Y-68500000D01*
%TO.N,/D6*%
X175500000Y-68000000D02*
X174500000Y-69000000D01*
X174500000Y-69000000D02*
X170000000Y-69000000D01*
X175500000Y-67170000D02*
X175500000Y-68000000D01*
X167660000Y-74840000D02*
X167660000Y-78000000D01*
X168500000Y-74000000D02*
X167660000Y-74840000D01*
X170000000Y-69000000D02*
X168500000Y-70500000D01*
X168500000Y-70500000D02*
X168500000Y-74000000D01*
%TO.N,/D7*%
X169000000Y-76800000D02*
X170200000Y-78000000D01*
X170500000Y-69500000D02*
X169000000Y-71000000D01*
X176300000Y-68200000D02*
X175000000Y-69500000D01*
X176300000Y-67170000D02*
X176300000Y-68200000D01*
X169000000Y-71000000D02*
X169000000Y-76800000D01*
X175000000Y-69500000D02*
X170500000Y-69500000D01*
X169500000Y-78000000D02*
X170200000Y-78000000D01*
%TO.N,/D8*%
X177100000Y-68400000D02*
X176500000Y-69000000D01*
X177100000Y-67170000D02*
X177100000Y-68400000D01*
%TO.N,/MISO*%
X182500000Y-78000000D02*
X182540000Y-78040000D01*
X179500000Y-69000000D02*
X179500000Y-67170000D01*
X182540000Y-78040000D02*
X187960000Y-78040000D01*
X187960000Y-78040000D02*
X187500000Y-78500000D01*
%TO.N,/MOSI*%
X180300000Y-68999997D02*
X180300003Y-69000000D01*
X180300000Y-67170000D02*
X180300000Y-68999997D01*
%TO.N,/SCK*%
X183262500Y-65800000D02*
X184500000Y-64562500D01*
X193040000Y-78040000D02*
X191700000Y-76700000D01*
X181670000Y-65800000D02*
X183262500Y-65800000D01*
X186810000Y-72690000D02*
X187000000Y-72500000D01*
X191700000Y-76700000D02*
X187533654Y-76700000D01*
X187533654Y-76700000D02*
X186810000Y-75976346D01*
X183500000Y-67630000D02*
X181670000Y-65800000D01*
X183500000Y-68000000D02*
X183500000Y-67630000D01*
X186810000Y-75976346D02*
X186810000Y-72690000D01*
%TO.N,Net-(U1-AREF)*%
X181670000Y-63400000D02*
X182405000Y-63400000D01*
X183000000Y-62805000D02*
X183000000Y-60000000D01*
X182500000Y-57000000D02*
X182500000Y-56950000D01*
X182405000Y-63400000D02*
X183000000Y-62805000D01*
X182500000Y-56950000D02*
X181050000Y-55500000D01*
%TO.N,/RESET*%
X181000000Y-57000000D02*
X178000000Y-57000000D01*
X178000000Y-57000000D02*
X178000000Y-57334103D01*
X177100000Y-58234103D02*
X177100000Y-58830000D01*
X178000000Y-57334103D02*
X177100000Y-58234103D01*
X181600000Y-57600000D02*
X181000000Y-57000000D01*
X185000000Y-58700000D02*
X183900000Y-57600000D01*
X185000000Y-59000000D02*
X185000000Y-58700000D01*
X183900000Y-57600000D02*
X181600000Y-57600000D01*
X185000000Y-59000000D02*
X185000000Y-60587500D01*
X190500000Y-72960000D02*
X190500000Y-65500000D01*
X187960000Y-75500000D02*
X190500000Y-72960000D01*
%TO.N,/TX*%
X176300000Y-58185574D02*
X176992787Y-57492787D01*
X176300000Y-58830000D02*
X176300000Y-58185574D01*
%TO.N,/RX*%
X175500000Y-58830000D02*
X175500000Y-58000000D01*
X175500000Y-58000000D02*
X176000000Y-57500000D01*
X178770000Y-52000000D02*
X179225000Y-52455000D01*
%TO.N,/D2*%
X166600000Y-68834315D02*
X166600000Y-71400000D01*
X164000000Y-74500000D02*
X162950000Y-75550000D01*
X174700000Y-58830000D02*
X172170000Y-58830000D01*
X159950000Y-75550000D02*
X157500000Y-78000000D01*
X162950000Y-75550000D02*
X159950000Y-75550000D01*
X164000000Y-74000000D02*
X164000000Y-74500000D01*
X170845000Y-65655000D02*
X169400000Y-67100000D01*
X168334314Y-67100000D02*
X166600000Y-68834315D01*
X169400000Y-67100000D02*
X168334314Y-67100000D01*
X170845000Y-62438496D02*
X170845000Y-65655000D01*
X171200000Y-59800000D02*
X171200000Y-62083495D01*
X166600000Y-71400000D02*
X164000000Y-74000000D01*
X171200000Y-62083495D02*
X170845000Y-62438496D01*
X172170000Y-58830000D02*
X171200000Y-59800000D01*
%TO.N,Net-(U4-SQW{slash}~INT)*%
X162490000Y-69865000D02*
X163475000Y-69865000D01*
X162140000Y-69515000D02*
X162490000Y-69865000D01*
X167450000Y-65500000D02*
X164836182Y-65500000D01*
X162140000Y-68196182D02*
X162140000Y-69515000D01*
X163475000Y-69865000D02*
X164460000Y-69865000D01*
X164836182Y-65500000D02*
X162140000Y-68196182D01*
%TO.N,Net-(U4-X2)*%
X154000000Y-71600000D02*
X155735000Y-69865000D01*
X155735000Y-69865000D02*
X158525000Y-69865000D01*
%TO.N,Net-(U4-X1)*%
X156195000Y-68595000D02*
X158525000Y-68595000D01*
X154000000Y-66400000D02*
X156195000Y-68595000D01*
%TO.N,Net-(D1-K)*%
X184500000Y-66437500D02*
X187500000Y-63437500D01*
X187500000Y-63437500D02*
X187500000Y-62412500D01*
%TO.N,Net-(D2-K)*%
X175487500Y-56550000D02*
X174437500Y-55500000D01*
X178412500Y-55500000D02*
X177362500Y-56550000D01*
X177362500Y-56550000D02*
X175487500Y-56550000D01*
%TO.N,Net-(U4-~{INTA})*%
X159047500Y-71135000D02*
X162412500Y-74500000D01*
X158525000Y-71135000D02*
X159047500Y-71135000D01*
%TD*%
M02*
