%TF.GenerationSoftware,KiCad,Pcbnew,10.0.4*%
%TF.CreationDate,2026-08-03T22:27:41+05:00*%
%TF.ProjectId,ATMEGA328P Datalogger,41544d45-4741-4333-9238-502044617461,FIRST*%
%TF.SameCoordinates,Original*%
%TF.FileFunction,Paste,Top*%
%TF.FilePolarity,Positive*%
%FSLAX46Y46*%
G04 Gerber Fmt 4.6, Leading zero omitted, Abs format (unit mm)*
G04 Created by KiCad (PCBNEW 10.0.4) date 2026-08-03 22:27:41*
%MOMM*%
%LPD*%
G01*
G04 APERTURE LIST*
G04 Aperture macros list*
%AMRoundRect*
0 Rectangle with rounded corners*
0 $1 Rounding radius*
0 $2 $3 $4 $5 $6 $7 $8 $9 X,Y pos of 4 corners*
0 Add a 4 corners polygon primitive as box body*
4,1,4,$2,$3,$4,$5,$6,$7,$8,$9,$2,$3,0*
0 Add four circle primitives for the rounded corners*
1,1,$1+$1,$2,$3*
1,1,$1+$1,$4,$5*
1,1,$1+$1,$6,$7*
1,1,$1+$1,$8,$9*
0 Add four rect primitives between the rounded corners*
20,1,$1+$1,$2,$3,$4,$5,0*
20,1,$1+$1,$4,$5,$6,$7,0*
20,1,$1+$1,$6,$7,$8,$9,0*
20,1,$1+$1,$8,$9,$2,$3,0*%
G04 Aperture macros list end*
%ADD10RoundRect,0.162500X-0.650000X-0.162500X0.650000X-0.162500X0.650000X0.162500X-0.650000X0.162500X0*%
%ADD11RoundRect,0.068750X-0.666250X-0.206250X0.666250X-0.206250X0.666250X0.206250X-0.666250X0.206250X0*%
%ADD12RoundRect,0.068750X-0.206250X-0.666250X0.206250X-0.666250X0.206250X0.666250X-0.206250X0.666250X0*%
%ADD13RoundRect,0.250000X0.450000X-0.262500X0.450000X0.262500X-0.450000X0.262500X-0.450000X-0.262500X0*%
%ADD14RoundRect,0.250000X-0.250000X-0.475000X0.250000X-0.475000X0.250000X0.475000X-0.250000X0.475000X0*%
%ADD15RoundRect,0.250000X-0.262500X-0.450000X0.262500X-0.450000X0.262500X0.450000X-0.262500X0.450000X0*%
%ADD16RoundRect,0.250001X0.949999X-1.499999X0.949999X1.499999X-0.949999X1.499999X-0.949999X-1.499999X0*%
%ADD17RoundRect,0.250000X0.250000X0.475000X-0.250000X0.475000X-0.250000X-0.475000X0.250000X-0.475000X0*%
%ADD18RoundRect,0.243750X0.456250X-0.243750X0.456250X0.243750X-0.456250X0.243750X-0.456250X-0.243750X0*%
%ADD19RoundRect,0.243750X0.243750X0.456250X-0.243750X0.456250X-0.243750X-0.456250X0.243750X-0.456250X0*%
%ADD20RoundRect,0.250001X1.499999X0.949999X-1.499999X0.949999X-1.499999X-0.949999X1.499999X-0.949999X0*%
%ADD21RoundRect,0.250000X0.475000X-0.250000X0.475000X0.250000X-0.475000X0.250000X-0.475000X-0.250000X0*%
%ADD22RoundRect,0.250000X-0.450000X0.262500X-0.450000X-0.262500X0.450000X-0.262500X0.450000X0.262500X0*%
%ADD23RoundRect,0.073750X-0.911250X-0.221250X0.911250X-0.221250X0.911250X0.221250X-0.911250X0.221250X0*%
G04 APERTURE END LIST*
D10*
%TO.C,U3*%
X157412500Y-52595000D03*
X157412500Y-53865000D03*
X157412500Y-55135000D03*
X157412500Y-56405000D03*
X164587500Y-56405000D03*
X164587500Y-55135000D03*
X164587500Y-53865000D03*
X164587500Y-52595000D03*
%TD*%
D11*
%TO.C,U1*%
X173330000Y-60200000D03*
X173330000Y-61000000D03*
X173330000Y-61800000D03*
X173330000Y-62600000D03*
X173330000Y-63400000D03*
X173330000Y-64200000D03*
X173330000Y-65000000D03*
X173330000Y-65800000D03*
D12*
X174700000Y-67170000D03*
X175500000Y-67170000D03*
X176300000Y-67170000D03*
X177100000Y-67170000D03*
X177900000Y-67170000D03*
X178700000Y-67170000D03*
X179500000Y-67170000D03*
X180300000Y-67170000D03*
D11*
X181670000Y-65800000D03*
X181670000Y-65000000D03*
X181670000Y-64200000D03*
X181670000Y-63400000D03*
X181670000Y-62600000D03*
X181670000Y-61800000D03*
X181670000Y-61000000D03*
X181670000Y-60200000D03*
D12*
X180300000Y-58830000D03*
X179500000Y-58830000D03*
X178700000Y-58830000D03*
X177900000Y-58830000D03*
X177100000Y-58830000D03*
X176300000Y-58830000D03*
X175500000Y-58830000D03*
X174700000Y-58830000D03*
%TD*%
D13*
%TO.C,R6*%
X185000000Y-62412500D03*
X185000000Y-60587500D03*
%TD*%
D14*
%TO.C,C5*%
X185550000Y-55500000D03*
X187450000Y-55500000D03*
%TD*%
D10*
%TO.C,U2*%
X157412500Y-60595000D03*
X157412500Y-61865000D03*
X157412500Y-63135000D03*
X157412500Y-64405000D03*
X164587500Y-64405000D03*
X164587500Y-63135000D03*
X164587500Y-61865000D03*
X164587500Y-60595000D03*
%TD*%
D15*
%TO.C,R3*%
X167450000Y-59500000D03*
X169275000Y-59500000D03*
%TD*%
%TO.C,R2*%
X167450000Y-65500000D03*
X169275000Y-65500000D03*
%TD*%
D16*
%TO.C,Y1*%
X154000000Y-71600000D03*
X154000000Y-66400000D03*
%TD*%
D17*
%TO.C,C3*%
X185400000Y-73000000D03*
X183500000Y-73000000D03*
%TD*%
D18*
%TO.C,D1*%
X184500000Y-66437500D03*
X184500000Y-64562500D03*
%TD*%
D19*
%TO.C,D2*%
X174437500Y-55500000D03*
X172562500Y-55500000D03*
%TD*%
D14*
%TO.C,C1*%
X167500000Y-56000000D03*
X169400000Y-56000000D03*
%TD*%
D20*
%TO.C,Y2*%
X180000000Y-72000000D03*
X174800000Y-72000000D03*
%TD*%
D15*
%TO.C,R1*%
X160587500Y-74500000D03*
X162412500Y-74500000D03*
%TD*%
D21*
%TO.C,C2*%
X171000000Y-73950000D03*
X171000000Y-72050000D03*
%TD*%
D14*
%TO.C,C4*%
X181050000Y-55500000D03*
X182950000Y-55500000D03*
%TD*%
D22*
%TO.C,R5*%
X187500000Y-60587500D03*
X187500000Y-62412500D03*
%TD*%
D23*
%TO.C,U4*%
X158525000Y-68595000D03*
X158525000Y-69865000D03*
X158525000Y-71135000D03*
X158525000Y-72405000D03*
X163475000Y-72405000D03*
X163475000Y-71135000D03*
X163475000Y-69865000D03*
X163475000Y-68595000D03*
%TD*%
D15*
%TO.C,R4*%
X167450000Y-62450000D03*
X169275000Y-62450000D03*
%TD*%
%TO.C,R7*%
X176587500Y-55500000D03*
X178412500Y-55500000D03*
%TD*%
M02*
